<svg id="Layer_1" data-name="Layer 1" xmlns="http://www.w3.org/2000/svg" viewBox="0 0 960 540"><defs><style>.cls-1{font-size:26.67px;letter-spacing:-0.01em;}.cls-1,.cls-11{fill:#656c73;font-family:GoogleSansDisplay-Regular, Google Sans Display;}.cls-2{letter-spacing:-0.01em;}.cls-3{letter-spacing:-0.02em;}.cls-4{letter-spacing:-0.02em;}.cls-5{letter-spacing:0em;}.cls-6{letter-spacing:-0.02em;}.cls-7{letter-spacing:0.01em;}.cls-8{letter-spacing:-0.03em;}.cls-9{letter-spacing:-0.01em;}.cls-10{letter-spacing:-0.04em;}.cls-11{font-size:16.59px;}.cls-12{letter-spacing:0.01em;}.cls-13{letter-spacing:-0.01em;}.cls-14{fill:#ea4335;}.cls-15{fill:#4285f4;}.cls-16{fill:#fbbc04;}.cls-17{fill:#0f9d58;}</style></defs><text class="cls-1" transform="translate(359.36 293.98)">G<tspan class="cls-2" x="21.23" y="0">oo</tspan><tspan class="cls-3" x="51.46" y="0">g</tspan><tspan class="cls-4" x="66.53" y="0">l</tspan><tspan class="cls-2" x="71.7" y="0">e </tspan><tspan class="cls-5" x="92.02" y="0">D</tspan><tspan class="cls-6" x="110.58" y="0">e</tspan><tspan class="cls-5" x="124.71" y="0">v</tspan><tspan class="cls-2" x="137.97" y="0">e</tspan><tspan class="cls-4" x="152.37" y="0">lo</tspan><tspan class="cls-7" x="172.52" y="0">p</tspan><tspan class="cls-2" x="188.42" y="0">er</tspan><tspan class="cls-8" x="212.31" y="0"> </tspan><tspan class="cls-9" x="217.7" y="0">G</tspan><tspan class="cls-10" x="239.05" y="0">r</tspan><tspan x="247.75" y="0">o</tspan><tspan class="cls-2" x="262.73" y="0">u</tspan><tspan class="cls-4" x="277.24" y="0">p</tspan><tspan class="cls-9" x="292.46" y="0">s</tspan></text><text class="cls-11" transform="translate(359.87 317.27)">M<tspan class="cls-12" x="14.35" y="0">e</tspan><tspan class="cls-13" x="23.56" y="0">d</tspan><tspan x="33.27" y="0">an</tspan></text><path class="cls-14" d="M308.62,284.72l8.55-4.93A4.21,4.21,0,1,0,313,272.5L298.19,281Z"/><path class="cls-15" d="M315.06,297.41a4.21,4.21,0,0,0,2.11-7.85L302.4,281a4.21,4.21,0,0,0-4.21,7.29L313,296.84A4.15,4.15,0,0,0,315.06,297.41Z"/><path class="cls-16" d="M329.76,297.41a4.09,4.09,0,0,0,2.09-.57l14.77-8.52-10.29-3.77-8.68,5a4.21,4.21,0,0,0,2.11,7.85Z"/><path class="cls-17" d="M344.52,288.88a4.21,4.21,0,0,0,2.1-7.85l-14.77-8.53a4.21,4.21,0,0,0-4.2,7.29l14.77,8.53A4.19,4.19,0,0,0,344.52,288.88Z"/></svg>